<svg width="101" height="24" viewBox="0 0 101 24" fill="none" xmlns="http://www.w3.org/2000/svg">
<path d="M96.0763 23.056C93.7403 23.056 91.9163 21.584 91.9163 18.8V8.97599H89.4203V7.34399H91.9163V5.13599L93.9963 3.56799V7.34399H99.1483V8.97599H93.9963V18.224C93.9963 20.432 95.1483 21.04 96.4923 21.04C97.8683 21.04 98.9883 20.048 99.5003 18.96L100.236 21.008C99.5643 22.128 98.0603 23.056 96.0763 23.056Z" fill="white"/>
<path d="M78.564 22.704H76.484V8.97597H73.956V7.34397H76.484V5.55197C76.484 2.44797 78.404 0.94397 81.252 0.94397C83.62 0.94397 85.316 2.19197 86.02 3.08797L84.868 4.59197C84.164 3.59997 82.756 2.70397 81.156 2.70397C79.556 2.70397 78.564 3.56797 78.564 5.61597V7.34397H87.044V22.704H84.932V8.97597H78.564V22.704Z" fill="white"/>
<path d="M70.9142 4.59198H68.8022V1.26398H70.9142V4.59198ZM70.9142 22.704H68.8022V7.34398H70.9142V22.704Z" fill="white"/>
<path d="M59.909 23.024C56.773 23.024 53.829 21.616 52.901 18.608L54.469 17.424C54.949 19.504 56.869 21.232 59.973 21.232C62.021 21.232 63.365 20.4 63.365 18.8C63.365 17.2 61.989 16.624 59.909 16.144L57.829 15.664C55.621 15.12 53.349 14.096 53.349 11.344C53.349 8.68799 55.461 7.02399 58.629 7.02399C61.893 7.02399 64.037 8.65599 64.805 10.832L63.205 12.016C62.501 9.93599 60.901 8.78399 58.501 8.78399C56.645 8.78399 55.333 9.64799 55.333 11.248C55.333 12.848 56.485 13.424 58.725 13.968L60.773 14.48C63.973 15.28 65.253 16.592 65.253 18.768C65.253 21.712 62.757 23.024 59.909 23.024Z" fill="white"/>
<path d="M45.5028 23.024C42.3668 23.024 39.4228 21.616 38.4948 18.608L40.0628 17.424C40.5428 19.504 42.4628 21.232 45.5668 21.232C47.6148 21.232 48.9588 20.4 48.9588 18.8C48.9588 17.2 47.5828 16.624 45.5028 16.144L43.4228 15.664C41.2148 15.12 38.9428 14.096 38.9428 11.344C38.9428 8.68799 41.0548 7.02399 44.2228 7.02399C47.4868 7.02399 49.6308 8.65599 50.3988 10.832L48.7988 12.016C48.0948 9.93599 46.4948 8.78399 44.0948 8.78399C42.2388 8.78399 40.9268 9.64799 40.9268 11.248C40.9268 12.848 42.0788 13.424 44.3188 13.968L46.3668 14.48C49.5668 15.28 50.8468 16.592 50.8468 18.768C50.8468 21.712 48.3508 23.024 45.5028 23.024Z" fill="white"/>
<path d="M27.1227 23.024C24.5947 23.024 23.1547 21.648 23.1547 19.6C23.1547 17.584 24.6587 16.304 26.8027 15.344L32.6267 12.688V12.56C32.6267 10.256 31.5387 8.91199 29.0427 8.91199C26.7387 8.91199 25.0747 10.224 24.2747 11.92L22.8027 10.448C23.7627 8.84799 26.0027 7.02399 29.2667 7.02399C32.8507 7.02399 34.7067 9.10399 34.7067 12.528V19.728C34.7067 20.528 35.0587 20.816 35.7947 20.816H36.6907V22.704H35.2507C33.7147 22.704 32.6907 22.032 32.6907 20.08V18.448C32.1787 20.656 30.1947 23.024 27.1227 23.024ZM25.2667 19.312C25.2667 20.592 26.2267 21.264 27.7307 21.264C30.5787 21.264 32.6907 19.056 32.6907 16.976V14.256L27.6987 16.624C26.0347 17.392 25.2667 18.16 25.2667 19.312Z" fill="white"/>
<path d="M19.633 22.704H17.521V1.26398H19.633V22.704Z" fill="white"/>
<path d="M7.168 23.024C2.848 23.024 0 20.016 0 15.024C0 10.032 2.848 7.02399 7.2 7.02399C11.008 7.02399 13.408 9.26399 14.016 12.368L12 13.232C11.68 10.64 10.144 8.75199 7.2 8.75199C4.16 8.75199 2.144 10.928 2.144 15.024C2.144 19.088 4.16 21.264 7.2 21.264C10.144 21.264 11.68 19.408 12 16.816L14.016 17.68C13.408 20.784 11.008 23.024 7.168 23.024Z" fill="white"/>
</svg>
