<svg width="194" height="92" viewBox="0 0 194 92" fill="none" xmlns="http://www.w3.org/2000/svg">
<rect y="0.5" width="194" height="91" rx="5" fill="#EEF2FF"/>
<path fill-rule="evenodd" clip-rule="evenodd" d="M95.9901 9.17508C96.3634 8.27758 97.6367 8.27758 98.0101 9.17508L99.7451 13.3476L104.248 13.7084C105.218 13.7859 105.612 14.9959 104.873 15.6292L101.442 18.5684L102.489 22.9626C102.715 23.9092 101.686 24.6567 100.856 24.1501L97.0001 21.7951L93.1442 24.1501C92.3142 24.6567 91.2851 23.9084 91.5109 22.9626L92.5584 18.5684L89.1276 15.6292C88.3884 14.9959 88.7817 13.7859 89.7517 13.7084L94.2551 13.3476L95.9901 9.17508Z" fill="#222220"/>
<path fill-rule="evenodd" clip-rule="evenodd" d="M115.99 9.17508C116.363 8.27758 117.637 8.27758 118.01 9.17508L119.745 13.3476L124.248 13.7084C125.218 13.7859 125.612 14.9959 124.872 15.6292L121.442 18.5684L122.489 22.9626C122.715 23.9092 121.686 24.6567 120.856 24.1501L117 21.7951L113.144 24.1501C112.314 24.6567 111.285 23.9084 111.511 22.9626L112.558 18.5684L109.127 15.6292C108.388 14.9959 108.782 13.7859 109.752 13.7084L114.255 13.3476L115.99 9.17508Z" fill="#222220"/>
<path fill-rule="evenodd" clip-rule="evenodd" d="M135.99 9.17508C136.363 8.27758 137.637 8.27758 138.01 9.17508L139.745 13.3476L144.248 13.7084C145.218 13.7859 145.612 14.9959 144.872 15.6292L141.442 18.5684L142.489 22.9626C142.715 23.9092 141.686 24.6567 140.856 24.1501L137 21.7951L133.144 24.1501C132.314 24.6567 131.285 23.9084 131.511 22.9626L132.558 18.5684L129.127 15.6292C128.388 14.9959 128.782 13.7859 129.752 13.7084L134.255 13.3476L135.99 9.17508Z" fill="#222220"/>
<path fill-rule="evenodd" clip-rule="evenodd" d="M155.99 9.17508C156.363 8.27758 157.637 8.27758 158.01 9.17508L159.745 13.3476L164.248 13.7084C165.218 13.7859 165.612 14.9959 164.873 15.6292L161.442 18.5684L162.489 22.9626C162.715 23.9092 161.686 24.6567 160.856 24.1501L157 21.7951L153.144 24.1501C152.314 24.6567 151.285 23.9084 151.511 22.9626L152.558 18.5684L149.128 15.6292C148.388 14.9959 148.782 13.7859 149.752 13.7084L154.255 13.3476L155.99 9.17508Z" fill="#222220"/>
<path fill-rule="evenodd" clip-rule="evenodd" d="M175.99 9.17508C176.363 8.27758 177.637 8.27758 178.01 9.17508L179.745 13.3476L184.248 13.7084C185.218 13.7859 185.612 14.9959 184.873 15.6292L181.442 18.5684L182.489 22.9626C182.715 23.9092 181.686 24.6567 180.856 24.1501L177 21.7951L173.144 24.1501C172.314 24.6567 171.285 23.9084 171.511 22.9626L172.558 18.5684L169.128 15.6292C168.388 14.9959 168.782 13.7859 169.752 13.7084L174.255 13.3476L175.99 9.17508Z" fill="#222220"/>
<path d="M18.488 18.4091V31.5H16.1166V20.7166H16.0399L12.9781 22.6726V20.4993L16.2316 18.4091H18.488ZM26.6507 31.7493C25.5981 31.7493 24.6947 31.483 23.9404 30.9503C23.1904 30.4134 22.613 29.6399 22.2082 28.63C21.8076 27.6158 21.6073 26.3949 21.6073 24.9673C21.6116 23.5398 21.814 22.3253 22.2146 21.3239C22.6194 20.3182 23.1968 19.5511 23.9468 19.0227C24.7011 18.4943 25.6024 18.2301 26.6507 18.2301C27.699 18.2301 28.6002 18.4943 29.3545 19.0227C30.1088 19.5511 30.6862 20.3182 31.0867 21.3239C31.4916 22.3295 31.694 23.544 31.694 24.9673C31.694 26.3991 31.4916 27.6222 31.0867 28.6364C30.6862 29.6463 30.1088 30.4176 29.3545 30.9503C28.6045 31.483 27.7032 31.7493 26.6507 31.7493ZM26.6507 29.7486C27.4688 29.7486 28.1144 29.3459 28.5875 28.5405C29.0647 27.7308 29.3034 26.5398 29.3034 24.9673C29.3034 23.9276 29.1947 23.054 28.9774 22.3466C28.76 21.6392 28.4532 21.1065 28.0569 20.7486C27.6606 20.3864 27.1919 20.2053 26.6507 20.2053C25.8367 20.2053 25.1933 20.6101 24.7203 21.4197C24.2473 22.2251 24.0086 23.4077 24.0044 24.9673C24.0001 26.0114 24.1045 26.8892 24.3176 27.6009C24.5349 28.3125 24.8417 28.8494 25.238 29.2116C25.6343 29.5696 26.1052 29.7486 26.6507 29.7486ZM38.6565 31.7493C37.604 31.7493 36.7006 31.483 35.9463 30.9503C35.1963 30.4134 34.6189 29.6399 34.214 28.63C33.8135 27.6158 33.6132 26.3949 33.6132 24.9673C33.6175 23.5398 33.8199 22.3253 34.2204 21.3239C34.6253 20.3182 35.2027 19.5511 35.9527 19.0227C36.7069 18.4943 37.6082 18.2301 38.6565 18.2301C39.7048 18.2301 40.6061 18.4943 41.3604 19.0227C42.1146 19.5511 42.692 20.3182 43.0926 21.3239C43.4974 22.3295 43.6998 23.544 43.6998 24.9673C43.6998 26.3991 43.4974 27.6222 43.0926 28.6364C42.692 29.6463 42.1146 30.4176 41.3604 30.9503C40.6104 31.483 39.7091 31.7493 38.6565 31.7493ZM38.6565 29.7486C39.4747 29.7486 40.1203 29.3459 40.5933 28.5405C41.0706 27.7308 41.3092 26.5398 41.3092 24.9673C41.3092 23.9276 41.2006 23.054 40.9832 22.3466C40.7659 21.6392 40.4591 21.1065 40.0628 20.7486C39.6665 20.3864 39.1977 20.2053 38.6565 20.2053C37.8426 20.2053 37.1991 20.6101 36.7261 21.4197C36.2531 22.2251 36.0145 23.4077 36.0102 24.9673C36.006 26.0114 36.1104 26.8892 36.3234 27.6009C36.5408 28.3125 36.8476 28.8494 37.2439 29.2116C37.6402 29.5696 38.1111 29.7486 38.6565 29.7486ZM52.8229 29.0455V28.3551C52.8229 27.848 52.9294 27.3814 53.1425 26.9553C53.3598 26.5291 53.6752 26.1861 54.0885 25.9261C54.5019 25.6662 55.0026 25.5362 55.5907 25.5362C56.1958 25.5362 56.7029 25.6662 57.112 25.9261C57.521 26.1818 57.83 26.5227 58.0388 26.9489C58.2519 27.375 58.3584 27.8437 58.3584 28.3551V29.0455C58.3584 29.5526 58.2519 30.0192 58.0388 30.4453C57.8257 30.8714 57.5125 31.2145 57.0992 31.4744C56.6901 31.7344 56.1872 31.8643 55.5907 31.8643C54.9941 31.8643 54.4891 31.7344 54.0757 31.4744C53.6624 31.2145 53.3492 30.8714 53.1361 30.4453C52.9273 30.0192 52.8229 29.5526 52.8229 29.0455ZM54.4912 28.3551V29.0455C54.4912 29.3821 54.5722 29.6911 54.7341 29.9723C54.896 30.2536 55.1816 30.3942 55.5907 30.3942C56.004 30.3942 56.2874 30.2557 56.4408 29.9787C56.5985 29.6974 56.6773 29.3864 56.6773 29.0455V28.3551C56.6773 28.0142 56.6027 27.7031 56.4536 27.4219C56.3044 27.1364 56.0168 26.9936 55.5907 26.9936C55.1901 26.9936 54.9067 27.1364 54.7405 27.4219C54.5743 27.7031 54.4912 28.0142 54.4912 28.3551ZM46.1688 21.554V20.8636C46.1688 20.3523 46.2774 19.8835 46.4948 19.4574C46.7121 19.0312 47.0274 18.6903 47.4408 18.4347C47.8541 18.1747 48.3549 18.0447 48.9429 18.0447C49.5438 18.0447 50.0487 18.1747 50.4578 18.4347C50.8712 18.6903 51.1823 19.0312 51.3911 19.4574C51.5999 19.8835 51.7043 20.3523 51.7043 20.8636V21.554C51.7043 22.0653 51.5978 22.5341 51.3847 22.9602C51.1759 23.3821 50.8648 23.7209 50.4514 23.9766C50.0381 24.2322 49.5353 24.3601 48.9429 24.3601C48.3421 24.3601 47.835 24.2322 47.4216 23.9766C47.0125 23.7209 46.7014 23.38 46.4884 22.9538C46.2753 22.5277 46.1688 22.0611 46.1688 21.554ZM47.8499 20.8636V21.554C47.8499 21.8949 47.9287 22.206 48.0864 22.4872C48.2483 22.7642 48.5338 22.9027 48.9429 22.9027C49.352 22.9027 49.6333 22.7642 49.7867 22.4872C49.9443 22.206 50.0232 21.8949 50.0232 21.554V20.8636C50.0232 20.5227 49.9486 20.2116 49.7995 19.9304C49.6503 19.6449 49.3648 19.5021 48.9429 19.5021C48.5381 19.5021 48.2547 19.6449 48.0928 19.9304C47.9308 20.2159 47.8499 20.527 47.8499 20.8636ZM46.8975 31.5L55.8975 18.4091H57.4955L48.4955 31.5H46.8975ZM20.4056 44.0078C20.346 43.4496 20.0946 43.0149 19.6514 42.7038C19.2125 42.3928 18.6414 42.2372 17.9383 42.2372C17.444 42.2372 17.02 42.3118 16.6663 42.4609C16.3126 42.6101 16.042 42.8125 15.8545 43.0682C15.667 43.3239 15.5711 43.6158 15.5669 43.9439C15.5669 44.2166 15.6286 44.4531 15.7522 44.6534C15.8801 44.8537 16.0526 45.0241 16.27 45.1648C16.4873 45.3011 16.7281 45.4162 16.9923 45.5099C17.2565 45.6037 17.5228 45.6825 17.7913 45.7464L19.0186 46.0533C19.5129 46.1683 19.988 46.3239 20.444 46.5199C20.9042 46.7159 21.3154 46.9631 21.6776 47.2614C22.0441 47.5597 22.3339 47.9197 22.547 48.3416C22.76 48.7635 22.8666 49.2578 22.8666 49.8246C22.8666 50.5916 22.6705 51.267 22.2785 51.8509C21.8865 52.4304 21.3197 52.8842 20.5782 53.2124C19.841 53.5362 18.9482 53.6982 17.9 53.6982C16.8815 53.6982 15.9973 53.5405 15.2473 53.2251C14.5015 52.9098 13.9177 52.4496 13.4958 51.8445C13.0782 51.2393 12.8524 50.5021 12.8183 49.6328H15.1514C15.1855 50.0888 15.3261 50.468 15.5732 50.7706C15.8204 51.0732 16.1421 51.299 16.5384 51.4482C16.939 51.5973 17.3865 51.6719 17.8808 51.6719C18.3964 51.6719 18.8481 51.5952 19.2359 51.4418C19.6279 51.2841 19.9348 51.0668 20.1563 50.7898C20.3779 50.5085 20.4909 50.1804 20.4951 49.8054C20.4909 49.4645 20.3907 49.1832 20.1947 48.9616C19.9987 48.7358 19.7238 48.5483 19.3701 48.3991C19.0207 48.2457 18.6116 48.1094 18.1428 47.9901L16.6535 47.6065C15.5754 47.3295 14.7231 46.9098 14.0967 46.3473C13.4745 45.7805 13.1634 45.0284 13.1634 44.0909C13.1634 43.3196 13.3723 42.6442 13.7899 42.0646C14.2117 41.4851 14.7849 41.0355 15.5093 40.7159C16.2338 40.392 17.0541 40.2301 17.9703 40.2301C18.8992 40.2301 19.7132 40.392 20.412 40.7159C21.1151 41.0355 21.667 41.4808 22.0676 42.0518C22.4681 42.6186 22.6748 43.2706 22.6876 44.0078H20.4056ZM36.6782 46.9545C36.6782 48.3651 36.414 49.5732 35.8856 50.5788C35.3614 51.5803 34.6455 52.3473 33.7378 52.88C32.8344 53.4126 31.8096 53.679 30.6633 53.679C29.517 53.679 28.49 53.4126 27.5823 52.88C26.6789 52.343 25.963 51.5739 25.4346 50.5724C24.9104 49.5668 24.6484 48.3608 24.6484 46.9545C24.6484 45.544 24.9104 44.3381 25.4346 43.3366C25.963 42.331 26.6789 41.5618 27.5823 41.0291C28.49 40.4964 29.517 40.2301 30.6633 40.2301C31.8096 40.2301 32.8344 40.4964 33.7378 41.0291C34.6455 41.5618 35.3614 42.331 35.8856 43.3366C36.414 44.3381 36.6782 45.544 36.6782 46.9545ZM34.294 46.9545C34.294 45.9616 34.1384 45.1243 33.8273 44.4425C33.5205 43.7564 33.0944 43.2386 32.5489 42.8892C32.0035 42.5355 31.3749 42.3587 30.6633 42.3587C29.9516 42.3587 29.3231 42.5355 28.7776 42.8892C28.2322 43.2386 27.8039 43.7564 27.4928 44.4425C27.186 45.1243 27.0326 45.9616 27.0326 46.9545C27.0326 47.9474 27.186 48.7869 27.4928 49.473C27.8039 50.1548 28.2322 50.6726 28.7776 51.0263C29.3231 51.3757 29.9516 51.5504 30.6633 51.5504C31.3749 51.5504 32.0035 51.3757 32.5489 51.0263C33.0944 50.6726 33.5205 50.1548 33.8273 49.473C34.1384 48.7869 34.294 47.9474 34.294 46.9545ZM43.3563 53.5H38.9202V40.4091H43.4458C44.7455 40.4091 45.862 40.6712 46.7952 41.1953C47.7327 41.7152 48.4529 42.4631 48.9557 43.4389C49.4585 44.4148 49.71 45.5824 49.71 46.9418C49.71 48.3054 49.4564 49.4773 48.9493 50.4574C48.4465 51.4375 47.7199 52.1896 46.7696 52.7138C45.8236 53.2379 44.6858 53.5 43.3563 53.5ZM41.2916 51.4482H43.2412C44.1532 51.4482 44.9138 51.282 45.5232 50.9496C46.1326 50.6129 46.5907 50.1122 46.8975 49.4474C47.2043 48.7784 47.3577 47.9432 47.3577 46.9418C47.3577 45.9403 47.2043 45.1094 46.8975 44.4489C46.5907 43.7841 46.1368 43.2876 45.536 42.9595C44.9394 42.6271 44.1979 42.4609 43.3115 42.4609H41.2916V51.4482ZM56.3992 53.5H51.9632V40.4091H56.4887C57.7884 40.4091 58.9049 40.6712 59.8382 41.1953C60.7757 41.7152 61.4958 42.4631 61.9987 43.4389C62.5015 44.4148 62.7529 45.5824 62.7529 46.9418C62.7529 48.3054 62.4994 49.4773 61.9923 50.4574C61.4894 51.4375 60.7629 52.1896 59.8126 52.7138C58.8666 53.2379 57.7288 53.5 56.3992 53.5ZM54.3346 51.4482H56.2842C57.1961 51.4482 57.9568 51.282 58.5661 50.9496C59.1755 50.6129 59.6336 50.1122 59.9404 49.4474C60.2473 48.7784 60.4007 47.9432 60.4007 46.9418C60.4007 45.9403 60.2473 45.1094 59.9404 44.4489C59.6336 43.7841 59.1798 43.2876 58.5789 42.9595C57.9823 42.6271 57.2409 42.4609 56.3545 42.4609H54.3346V51.4482ZM67.3776 40.4091V53.5H65.0061V40.4091H67.3776ZM77.0599 44.0078C77.0003 43.4496 76.7489 43.0149 76.3057 42.7038C75.8668 42.3928 75.2957 42.2372 74.5926 42.2372C74.0983 42.2372 73.6743 42.3118 73.3206 42.4609C72.9669 42.6101 72.6963 42.8125 72.5088 43.0682C72.3213 43.3239 72.2254 43.6158 72.2212 43.9439C72.2212 44.2166 72.2829 44.4531 72.4065 44.6534C72.5344 44.8537 72.7069 45.0241 72.9243 45.1648C73.1416 45.3011 73.3824 45.4162 73.6466 45.5099C73.9108 45.6037 74.1771 45.6825 74.4456 45.7464L75.6729 46.0533C76.1672 46.1683 76.6423 46.3239 77.0983 46.5199C77.5585 46.7159 77.9697 46.9631 78.332 47.2614C78.6984 47.5597 78.9882 47.9197 79.2013 48.3416C79.4143 48.7635 79.5209 49.2578 79.5209 49.8246C79.5209 50.5916 79.3248 51.267 78.9328 51.8509C78.5408 52.4304 77.974 52.8842 77.2325 53.2124C76.4953 53.5362 75.6025 53.6982 74.5543 53.6982C73.5358 53.6982 72.6516 53.5405 71.9016 53.2251C71.1558 52.9098 70.572 52.4496 70.1501 51.8445C69.7325 51.2393 69.5067 50.5021 69.4726 49.6328H71.8057C71.8398 50.0888 71.9804 50.468 72.2275 50.7706C72.4747 51.0732 72.7964 51.299 73.1927 51.4482C73.5933 51.5973 74.0408 51.6719 74.5351 51.6719C75.0507 51.6719 75.5024 51.5952 75.8902 51.4418C76.2822 51.2841 76.5891 51.0668 76.8106 50.7898C77.0322 50.5085 77.1452 50.1804 77.1494 49.8054C77.1452 49.4645 77.045 49.1832 76.849 48.9616C76.653 48.7358 76.3781 48.5483 76.0244 48.3991C75.675 48.2457 75.2659 48.1094 74.7971 47.9901L73.3078 47.6065C72.2297 47.3295 71.3774 46.9098 70.751 46.3473C70.1288 45.7805 69.8177 45.0284 69.8177 44.0909C69.8177 43.3196 70.0266 42.6442 70.4442 42.0646C70.866 41.4851 71.4392 41.0355 72.1636 40.7159C72.8881 40.392 73.7084 40.2301 74.6246 40.2301C75.5535 40.2301 76.3675 40.392 77.0663 40.7159C77.7695 41.0355 78.3213 41.4808 78.7219 42.0518C79.1224 42.6186 79.3291 43.2706 79.3419 44.0078H77.0599ZM81.635 53.5V40.4091H90.0214V42.397H84.0065V45.951H89.4461V47.9389H84.0065V53.5H81.635ZM92.2283 53.5H89.697L94.3057 40.4091H97.2332L101.848 53.5H99.317L95.8206 43.0937H95.7183L92.2283 53.5ZM92.3114 48.3672H99.2148V50.272H92.3114V48.3672ZM101.415 42.397V40.4091H111.86V42.397H107.814V53.5H105.461V42.397H101.415ZM113.298 42.397V40.4091H123.743V42.397H119.696V53.5H117.344V42.397H113.298ZM136.874 46.9545C136.874 48.3651 136.609 49.5732 136.081 50.5788C135.557 51.5803 134.841 52.3473 133.933 52.88C133.03 53.4126 132.005 53.679 130.859 53.679C129.712 53.679 128.685 53.4126 127.778 52.88C126.874 52.343 126.158 51.5739 125.63 50.5724C125.106 49.5668 124.844 48.3608 124.844 46.9545C124.844 45.544 125.106 44.3381 125.63 43.3366C126.158 42.331 126.874 41.5618 127.778 41.0291C128.685 40.4964 129.712 40.2301 130.859 40.2301C132.005 40.2301 133.03 40.4964 133.933 41.0291C134.841 41.5618 135.557 42.331 136.081 43.3366C136.609 44.3381 136.874 45.544 136.874 46.9545ZM134.489 46.9545C134.489 45.9616 134.334 45.1243 134.023 44.4425C133.716 43.7564 133.29 43.2386 132.744 42.8892C132.199 42.5355 131.57 42.3587 130.859 42.3587C130.147 42.3587 129.518 42.5355 128.973 42.8892C128.427 43.2386 127.999 43.7564 127.688 44.4425C127.381 45.1243 127.228 45.9616 127.228 46.9545C127.228 47.9474 127.381 48.7869 127.688 49.473C127.999 50.1548 128.427 50.6726 128.973 51.0263C129.518 51.3757 130.147 51.5504 130.859 51.5504C131.57 51.5504 132.199 51.3757 132.744 51.0263C133.29 50.6726 133.716 50.1548 134.023 49.473C134.334 48.7869 134.489 47.9474 134.489 46.9545ZM22.5342 66.5C22.3936 66.0696 22.2082 65.6839 21.9781 65.343C21.7522 64.9979 21.4816 64.7038 21.1663 64.4609C20.8552 64.218 20.5015 64.0327 20.1052 63.9048C19.7089 63.777 19.2742 63.7131 18.8012 63.7131C18.0257 63.7131 17.3204 63.9134 16.6855 64.3139C16.0505 64.7145 15.5455 65.3047 15.1705 66.0845C14.7955 66.8643 14.608 67.821 14.608 68.9545C14.608 70.0881 14.7977 71.0447 15.1769 71.8246C15.5562 72.6044 16.0697 73.1946 16.7174 73.5952C17.3651 73.9957 18.0938 74.196 18.9035 74.196C19.6535 74.196 20.314 74.0362 20.885 73.7166C21.4603 73.3928 21.9078 72.9368 22.2274 72.3487C22.5512 71.7564 22.7132 71.0597 22.7132 70.2585L23.199 70.3608H19.2615V68.9545H24.2473V70.3608C24.2473 71.4389 24.0171 72.3764 23.5569 73.1733C23.1009 73.9702 22.4703 74.5881 21.6649 75.027C20.8637 75.4616 19.9433 75.679 18.9035 75.679C17.7444 75.679 16.7259 75.4062 15.8481 74.8608C14.9745 74.3153 14.2927 73.5398 13.8026 72.5341C13.3169 71.5284 13.074 70.3352 13.074 68.9545C13.074 67.919 13.2124 66.9879 13.4894 66.1612C13.7707 65.3303 14.167 64.6229 14.6784 64.0391C15.1897 63.4553 15.7948 63.0078 16.4937 62.6967C17.1926 62.3857 17.9617 62.2301 18.8012 62.2301C19.4916 62.2301 20.135 62.3345 20.7316 62.5433C21.3325 62.7479 21.8673 63.0398 22.336 63.419C22.809 63.794 23.2032 64.2436 23.5186 64.7678C23.8339 65.2876 24.0512 65.8651 24.1705 66.5H22.5342ZM27.0949 75.5H25.433L30.2398 62.4091H31.8762L36.683 75.5H35.021L31.1091 64.4801H31.0068L27.0949 75.5ZM27.7085 70.3864H34.4074V71.7926H27.7085V70.3864ZM38.722 75.5V62.4091H43.1453C44.1681 62.4091 45.0076 62.5838 45.6638 62.9332C46.3201 63.2784 46.8058 63.7535 47.1212 64.3587C47.4365 64.9638 47.5942 65.652 47.5942 66.4233C47.5942 67.1946 47.4365 67.8786 47.1212 68.4751C46.8058 69.0717 46.3222 69.5405 45.6702 69.8814C45.0182 70.218 44.1851 70.3864 43.1709 70.3864H39.5914V68.9545H43.1198C43.8186 68.9545 44.3811 68.8523 44.8073 68.6477C45.2377 68.4432 45.5487 68.1534 45.7405 67.7784C45.9365 67.3991 46.0345 66.9474 46.0345 66.4233C46.0345 65.8991 45.9365 65.441 45.7405 65.049C45.5445 64.657 45.2313 64.3544 44.8009 64.1413C44.3705 63.924 43.8016 63.8153 43.0942 63.8153H40.3073V75.5H38.722ZM44.884 69.6193L48.1056 75.5H46.2647L43.0942 69.6193H44.884ZM50.7726 75.5H49.1107L53.9175 62.4091H55.5539L60.3607 75.5H58.6988L54.7869 64.4801H54.6846L50.7726 75.5ZM51.3863 70.3864H58.0851V71.7926H51.3863V70.3864ZM72.7805 62.4091V75.5H71.2464L64.1128 65.2216H63.985V75.5H62.3998V62.4091H63.9339L71.093 72.7131H71.2208V62.4091H72.7805ZM75.5179 75.5V74.3494L82.5747 63.8153H75.4412V62.4091H84.4667V63.5597L77.4099 74.0937H84.5434V75.5H75.5179ZM88.7877 62.4091V75.5H87.2025V62.4091H88.7877ZM92.5031 75.5H90.8412L95.648 62.4091H97.2844L102.091 75.5H100.429L96.5173 64.4801H96.4151L92.5031 75.5ZM93.1168 70.3864H99.8156V71.7926H93.1168V70.3864Z" fill="#222220"/>
</svg>
